<svg height="511pt" viewBox="-43 0 511 511.99975" width="511pt" xmlns="http://www.w3.org/2000/svg"><path d="m331.28125 198.726562h-144.636719v-144.636718c0-29.871094 24.21875-54.089844 54.09375-54.089844h90.542969c29.875 0 54.089844 24.21875 54.089844 54.089844v90.546875c0 29.875-24.214844 54.089843-54.089844 54.089843zm0 0" fill="#ff5f7f"/><path d="m409.542969 420.363281c20.964843 20.960938 20.964843 54.949219 0 75.914063-20.960938 20.960937-54.949219 20.960937-75.910157 0-20.964843-20.964844-101.796874-135.78125-80.832031-156.746094 20.960938-20.960938 135.78125 59.867188 156.742188 80.832031zm0 0" fill="#3ccbde"/><path d="m343.257812 460.148438c-12.074218-16.265626-14.542968-37.902344-6.019531-56.285157 4.800781-10.355469 7.085938-21.660156 8.15625-30.878906-38.179687-24.269531-80.640625-45.394531-92.59375-33.445313-20.964843 20.964844 59.867188 135.785157 80.832031 156.746094 17.984376 17.988282 45.570313 20.527344 66.28125 7.644532-24.269531-6.828126-43.417968-25.953126-56.65625-43.78125zm0 0" fill="#00bfd7"/><path d="m321.683594 376.261719-32.15625 32.152343c-16.292969 16.292969-42.707032 16.292969-59 0l-43.085938-43.082031 91.15625-91.15625 43.085938 43.082031c16.292968 16.292969 16.292968 42.710938 0 59.003907zm0 0" fill="#f9ee80"/><path d="m187.445312 365.332031 43.082032 43.082031c16.292968 16.292969 42.707031 16.292969 59 0l6.550781-6.546874c-9.738281-7.597657-13.539063-21.585938-7.625-33.730469 10.179687-20.90625 6.417969-45.574219 6.417969-45.574219l-29.453125-35.203125zm0 0" fill="#eedb00"/><path d="m359.882812 190.554688c-9.347656-35.082032-27.789062-67.261719-54.148437-93.625-32.039063-32.039063-72.648437-52.390626-116.660156-58.917969-1.578125 5.078125-2.429688 10.480469-2.429688 16.078125v144.636718h144.636719c10.503906 0 20.304688-2.988281 28.601562-8.171874zm0 0" fill="#f6375d"/><path d="m315.433594 244.699219c0 86.96875-70.5 157.46875-157.464844 157.46875-86.96875 0-157.46875-70.5-157.46875-157.46875 0-86.964844 70.5-157.464844 157.46875-157.464844 86.964844 0 157.464844 70.5 157.464844 157.464844zm0 0" fill="#81d9e7"/><path d="m235.636719 322.367188c-42.828125 42.824218-112.511719 42.824218-155.339844 0-42.824219-42.828126-42.824219-112.507813.003906-155.335938 42.824219-42.828125 112.507813-42.828125 155.335938 0 42.824219 42.828125 42.824219 112.511719 0 155.335938zm0 0" fill="#fffcdc"/><path d="m142.820312 135.953125v128.578125h123.144532c6.25-34.304688-3.859375-71.03125-30.332032-97.5-25.265624-25.265625-59.878906-35.628906-92.8125-31.078125zm0 0" fill="#ff899f"/><path d="m167.820312 264.53125c0 13.808594-11.191406 25.003906-25 25.003906-13.808593 0-25.003906-11.195312-25.003906-25.003906s11.195313-25 25.003906-25c13.808594 0 25 11.191406 25 25zm0 0" fill="#eedb00"/></svg>